<svg xmlns="http://www.w3.org/2000/svg" viewBox="0 0 182.97 57.37"><defs><style>.cls-1{fill:#3e3a39;}.cls-2{fill:#00ada6;}</style></defs><g id="レイヤー_2" data-name="レイヤー 2"><g id="レイヤー_4" data-name="レイヤー 4"><path class="cls-1" d="M4.5,11.16a1.5,1.5,0,0,0,0,2.61l.08.05L22.28,24a9.54,9.54,0,0,0,8.06,0L48,13.82l.09-.05a1.51,1.51,0,0,0,0-2.61L48,11.11,30.34.89a9.54,9.54,0,0,0-8.06,0L4.58,11.11Z"/><path class="cls-1" d="M15,42.35c-4.39-2.56-6.15-6.2-6.15-11.23,0,0,0-6.41,0-8.86A1.46,1.46,0,0,0,8.11,21L2.35,17.72l-.15-.08A1.46,1.46,0,0,0,0,18.91v20A8.68,8.68,0,0,0,4,46.5l17.7,10.22.92.52a1,1,0,0,0,1.43-.82V48.14a.94.94,0,0,0-.48-.82Z"/><path class="cls-1" d="M52.6,18.48a1.23,1.23,0,0,0-1.84-1.06l-.51.3L32.55,27.94a8.2,8.2,0,0,0-4,7V56A1.22,1.22,0,0,0,30.35,57l.51-.29L48.56,46.5a9,9,0,0,0,4-7v-21Z"/><path class="cls-2" d="M14,24.11a.81.81,0,0,0-1.21.7v6.24c0,4.19,1.93,6.41,4.68,8.1l5.41,3.12a.81.81,0,0,0,1.21-.7V35.33a8.41,8.41,0,0,0-4.68-8.1S16,25.23,14,24.11Z"/><path class="cls-1" d="M155.35,21.59C155.35,16,160.6,11,169.29,11c5.61,0,9.53,1.49,12.11,3.48a1.58,1.58,0,0,1,.1,2.48l-3.83,3.42a2,2,0,0,1-2.45.09A10.2,10.2,0,0,0,169,18.32c-2.26,0-3.72,1.09-3.72,2.66,0,5.14,17.66,3.33,17.66,14.75,0,4.53-3.92,10.63-14.8,10.63-6.75,0-11.31-2.11-13.87-4a1.58,1.58,0,0,1-.23-2.4l3.52-3.7a2,2,0,0,1,2.59-.18,14,14,0,0,0,8.52,3.06c3.12,0,4.31-1.33,4.31-2.9C173,31.32,155.35,33,155.35,21.59Z"/><path class="cls-1" d="M137.07,11.37h-.46a12.53,12.53,0,0,0-7.3,2.34,2,2,0,0,1-2.47,0,12.56,12.56,0,0,0-7.3-2.34h-.46C111.31,11.57,106.7,17,106.7,26V43.73A1.43,1.43,0,0,0,108,45.25h5.54a1.43,1.43,0,0,0,1.33-1.52V26c0-4.18,1.4-5.86,4.41-5.86,3.3,0,4.66,1.68,4.66,5.86V43.73a1.44,1.44,0,0,0,1.33,1.52h5.55a1.44,1.44,0,0,0,1.33-1.52V26c0-4.18,1.08-5.8,4.66-5.86s4.4,1.68,4.4,5.86V43.73a1.44,1.44,0,0,0,1.33,1.52h5.55a1.43,1.43,0,0,0,1.33-1.52V26C149.45,17,144.83,11.57,137.07,11.37Z"/><path class="cls-1" d="M101.77,45.25a1.52,1.52,0,0,0,1.16-2.46C99,37.85,94.45,32,93.08,30.23c-1.58-2.09-1.61-3.56-.12-5.49L101,14.14A1.41,1.41,0,0,0,100,11.87H92.54a1.88,1.88,0,0,0-1.48.73c-2.91,3.82-5.88,7.69-6.74,8.82-4.42,5.51-2.28,8.91-.23,11.7C85.45,35,89.34,39.86,93,44.52a1.88,1.88,0,0,0,1.48.73Z"/><rect class="cls-1" x="68.83" y="11.85" width="9.47" height="33.49" rx="1.48"/></g></g></svg>